<?xml version="1.0" encoding="UTF-8"?>
<svg xmlns="http://www.w3.org/2000/svg"
     viewBox="0 0 24 24"
     width="24"
     height="24">

  <!-- Outer gold circle -->
  <circle cx="12" cy="12" r="10" fill="#E9D5A1" />

  <!-- Inner white circle with 70% opacity -->
  <circle cx="12" cy="12" r="6" fill="#FFFFFF" fill-opacity="0.7" />

  <!-- Lucide Baby icon (stroke matches charcoal) -->
  <g stroke="#5A5A5A" stroke-width="2" stroke-linecap="round" stroke-linejoin="round" fill="none">
    <path d="M9 12h.01" />
    <path d="M15 12h.01" />
    <path d="M10 16c.5.3 1.2.5 2 .5s1.5-.2 2-.5" />
    <path d="M19 6.3a9 9 0 0 1 1.8 3.9 2 2 0 0 1 0 3.6 9 9 0 0 1-17.6 0 2 2 0 0 1 0-3.6A9 9 0 0 1 12 3c2 0 3.8.7 5.2 1.8" />
    <circle cx="12" cy="12" r="10" />
  </g>
</svg>
